<?xml version="1.0" encoding="UTF-8"?><svg id="Layer_1" xmlns="http://www.w3.org/2000/svg" xmlns:xlink="http://www.w3.org/1999/xlink" viewBox="0 0 265.04 274.72"><defs><style>.cls-1{fill:#fff;}.cls-2{fill:url(#linear-gradient);filter:url(#drop-shadow-1);stroke:#fff;stroke-miterlimit:10;stroke-width:6.75px;}</style><linearGradient id="linear-gradient" x1="19" y1="137.36" x2="237.15" y2="137.36" gradientUnits="userSpaceOnUse"><stop offset="0" stop-color="#f18866"/><stop offset="1" stop-color="#e5005e"/></linearGradient><filter id="drop-shadow-1" filterUnits="userSpaceOnUse"><feOffset dx="5.47" dy="5.47"/><feGaussianBlur result="blur" stdDeviation="4.82"/><feFlood flood-color="#1d1d1b" flood-opacity=".5"/><feComposite in2="blur" operator="in"/><feComposite in="SourceGraphic"/></filter></defs><path class="cls-2" d="m234.64,149.53c12.8-58.85-24.53-116.94-83.38-129.75C92.41,6.98,34.32,44.31,21.52,103.17s24.53,116.94,83.38,129.75c9.25,2.01,18.48,2.78,27.52,2.43l6.86,22.11s17.33-10.22,30.08-21.29c9.98-8.66,26.7-22.26,35.95-32.8,0,0,0,0,0,0,14.26-14.27,24.72-32.66,29.33-53.83Z"/><g><path class="cls-1" d="m46.12,125.61v-26.49h8.58c3.25,0,5.37.13,6.36.4,1.52.4,2.79,1.26,3.81,2.59,1.02,1.33,1.54,3.05,1.54,5.16,0,1.63-.3,2.99-.89,4.1-.59,1.11-1.34,1.98-2.25,2.61-.91.63-1.83,1.05-2.77,1.26-1.28.25-3.13.38-5.55.38h-3.49v9.99h-5.35Zm5.35-22v7.52h2.93c2.11,0,3.52-.14,4.23-.42.71-.28,1.27-.71,1.67-1.3.4-.59.6-1.28.6-2.06,0-.96-.28-1.76-.85-2.38-.57-.63-1.28-1.02-2.15-1.17-.64-.12-1.92-.18-3.85-.18h-2.58Z"/><path class="cls-1" d="m70.82,125.61v-26.49h11.26c2.83,0,4.89.24,6.17.71,1.28.48,2.31,1.32,3.08,2.54.77,1.22,1.16,2.61,1.16,4.17,0,1.99-.58,3.63-1.75,4.92-1.17,1.29-2.92,2.11-5.24,2.45,1.16.67,2.11,1.42,2.86,2.22.75.81,1.77,2.24,3.04,4.3l3.23,5.17h-6.4l-3.87-5.76c-1.37-2.06-2.31-3.36-2.82-3.89-.51-.54-1.04-.9-1.61-1.1-.57-.2-1.46-.3-2.69-.3h-1.08v11.06h-5.35Zm5.35-15.28h3.96c2.57,0,4.17-.11,4.81-.33.64-.22,1.14-.59,1.5-1.12.36-.53.54-1.19.54-1.99,0-.89-.24-1.61-.71-2.16-.48-.55-1.15-.89-2.01-1.04-.43-.06-1.73-.09-3.9-.09h-4.17v6.72Z"/><path class="cls-1" d="m96.44,112.53c0-2.7.4-4.96,1.21-6.79.6-1.35,1.42-2.56,2.47-3.63,1.04-1.07,2.18-1.87,3.42-2.38,1.65-.7,3.55-1.05,5.71-1.05,3.9,0,7.02,1.21,9.37,3.63,2.34,2.42,3.51,5.79,3.51,10.1s-1.16,7.62-3.49,10.04c-2.32,2.42-5.43,3.62-9.32,3.62s-7.07-1.2-9.39-3.6c-2.32-2.4-3.49-5.71-3.49-9.93Zm5.51-.18c0,3,.69,5.27,2.08,6.82,1.38,1.55,3.14,2.32,5.28,2.32s3.88-.77,5.25-2.3c1.37-1.54,2.05-3.84,2.05-6.91s-.67-5.3-2-6.79c-1.33-1.49-3.1-2.24-5.3-2.24s-3.98.76-5.33,2.27c-1.35,1.51-2.02,3.79-2.02,6.84Z"/><path class="cls-1" d="m135.86,99.13h5.33v16.77c0,2.19-.19,3.88-.58,5.06-.52,1.54-1.46,2.78-2.82,3.71-1.36.93-3.16,1.4-5.38,1.4-2.61,0-4.62-.73-6.03-2.19-1.41-1.46-2.12-3.61-2.13-6.44l5.04-.58c.06,1.52.28,2.59.67,3.22.58.95,1.46,1.43,2.64,1.43s2.04-.34,2.53-1.02c.49-.68.74-2.09.74-4.24v-17.11Z"/><path class="cls-1" d="m146.88,125.61v-26.49h19.64v4.48h-14.29v5.87h13.3v4.46h-13.3v7.21h14.8v4.46h-20.14Z"/><path class="cls-1" d="m188.5,115.87l5.19,1.64c-.79,2.89-2.12,5.04-3.97,6.44-1.85,1.4-4.19,2.1-7.04,2.1-3.52,0-6.41-1.2-8.67-3.6-2.26-2.4-3.4-5.69-3.4-9.86,0-4.41,1.14-7.83,3.41-10.27,2.28-2.44,5.27-3.66,8.98-3.66,3.24,0,5.87.96,7.9,2.87,1.2,1.13,2.11,2.76,2.71,4.88l-5.29,1.26c-.31-1.37-.97-2.46-1.96-3.25-.99-.79-2.2-1.19-3.62-1.19-1.96,0-3.56.7-4.78,2.11-1.22,1.41-1.83,3.69-1.83,6.85,0,3.35.6,5.73,1.81,7.15,1.2,1.42,2.77,2.13,4.7,2.13,1.42,0,2.64-.45,3.67-1.35,1.02-.9,1.76-2.32,2.2-4.26Z"/><path class="cls-1" d="m204.24,125.61v-22h-7.86v-4.48h21.05v4.48h-7.84v22h-5.35Z"/><path class="cls-1" d="m101.7,166.49v6.12h-23.09c.25-2.31,1-4.5,2.25-6.57s3.72-4.82,7.41-8.24c2.97-2.77,4.79-4.64,5.46-5.62.91-1.36,1.36-2.7,1.36-4.03,0-1.47-.39-2.6-1.18-3.39s-1.88-1.18-3.27-1.18-2.47.41-3.28,1.24-1.28,2.2-1.41,4.12l-6.56-.66c.39-3.62,1.62-6.23,3.68-7.8s4.64-2.37,7.73-2.37c3.39,0,6.05.91,7.99,2.74s2.91,4.1,2.91,6.82c0,1.55-.28,3.02-.83,4.42s-1.43,2.86-2.64,4.39c-.8,1.02-2.23,2.48-4.31,4.38s-3.39,3.17-3.95,3.8-1,1.23-1.35,1.83h13.08Z"/><path class="cls-1" d="m117.28,138.11c3.33,0,5.93,1.19,7.8,3.56,2.23,2.81,3.35,7.48,3.35,13.99s-1.12,11.17-3.38,14.02c-1.86,2.34-4.45,3.52-7.78,3.52s-6.04-1.29-8.09-3.86-3.07-7.15-3.07-13.75,1.12-11.12,3.38-13.97c1.86-2.34,4.45-3.52,7.78-3.52Zm0,5.46c-.8,0-1.51.25-2.13.76s-1.11,1.42-1.45,2.73c-.45,1.7-.68,4.57-.68,8.6s.2,6.8.61,8.31.92,2.51,1.54,3.01,1.32.75,2.12.75,1.51-.25,2.13-.76,1.11-1.42,1.45-2.73c.45-1.69.68-4.55.68-8.58s-.2-6.8-.61-8.31-.92-2.52-1.54-3.02-1.32-.76-2.12-.76Z"/><path class="cls-1" d="m155.09,166.49v6.12h-23.09c.25-2.31,1-4.5,2.25-6.57s3.72-4.82,7.41-8.24c2.97-2.77,4.79-4.64,5.46-5.62.91-1.36,1.36-2.7,1.36-4.03,0-1.47-.39-2.6-1.18-3.39s-1.88-1.18-3.27-1.18-2.47.41-3.28,1.24-1.28,2.2-1.41,4.12l-6.56-.66c.39-3.62,1.62-6.23,3.68-7.8s4.64-2.37,7.73-2.37c3.39,0,6.05.91,7.99,2.74s2.91,4.1,2.91,6.82c0,1.55-.28,3.02-.83,4.42s-1.43,2.86-2.64,4.39c-.8,1.02-2.23,2.48-4.31,4.38s-3.39,3.17-3.95,3.8-1,1.23-1.35,1.83h13.08Z"/><path class="cls-1" d="m159.31,163.49l6.38-.77c.2,1.62.75,2.87,1.64,3.73s1.97,1.29,3.23,1.29c1.36,0,2.5-.52,3.43-1.55s1.39-2.42,1.39-4.17c0-1.66-.45-2.97-1.34-3.94s-1.98-1.45-3.26-1.45c-.84,0-1.85.16-3.02.49l.73-5.37c1.78.05,3.14-.34,4.08-1.16s1.41-1.91,1.41-3.27c0-1.16-.34-2.08-1.03-2.77s-1.6-1.03-2.74-1.03-2.09.39-2.88,1.17-1.28,1.92-1.45,3.42l-6.07-1.03c.42-2.08,1.06-3.74,1.91-4.98s2.04-2.22,3.56-2.93,3.23-1.07,5.12-1.07c3.23,0,5.83,1.03,7.78,3.09,1.61,1.69,2.41,3.59,2.41,5.72,0,3.02-1.65,5.42-4.95,7.22,1.97.42,3.54,1.37,4.72,2.84s1.77,3.24,1.77,5.32c0,3.02-1.1,5.59-3.3,7.71s-4.95,3.19-8.23,3.19c-3.11,0-5.69-.89-7.73-2.68s-3.23-4.13-3.56-7.02Z"/></g></svg>